<svg width="16" height="16" viewBox="0 0 16 16" fill="none" xmlns="http://www.w3.org/2000/svg">
<path d="M12.5018 13.821H9.06906V10.3522H10.2035C10.4912 10.3522 10.6612 10.0253 10.4912 9.78991L8.28443 6.73637C8.14385 6.54021 7.85288 6.54021 7.7123 6.73637L5.50552 9.78991C5.33551 10.0253 5.50225 10.3522 5.79322 10.3522H6.92767V13.821H3.08296C1.36657 13.7262 0 12.1209 0 10.3817C0 9.18182 0.650593 8.13564 1.61504 7.57005C1.52677 7.33139 1.481 7.07638 1.481 6.8083C1.481 5.58231 2.4716 4.59171 3.69759 4.59171C3.9624 4.59171 4.21741 4.63748 4.45607 4.72575C5.16551 3.22186 6.69555 2.17896 8.47405 2.17896C10.7756 2.18222 12.6718 3.94438 12.8876 6.1904C14.6563 6.49444 16 8.13237 16 9.98607C16 11.9673 14.4569 13.6837 12.5018 13.821Z" fill="#0075DB" style="fill:#0075DB;fill:color(display-p3 0.0000 0.4588 0.8588);fill-opacity:1;"/>
</svg>
